/* XPM */
static char *be02eddb6c19470afec32f1e6e0827f0NzPv1TpN8ROcdCGA[] = {
/* columns rows colors chars-per-pixel */
"32 32 7 1 ",
"  c None",
". c #353540",
"X c #735B42",
"o c #EEB551",
"O c #C88D97",
"+ c #D2C1B1",
"@ c #EDE4DA",
/* pixels */
"                                ",
"                                ",
"                                ",
"                                ",
"                                ",
"                                ",
"                                ",
"                                ",
"                                ",
"                                ",
"          ...........           ",
"          .@@@oooooo.           ",
"          .@oooooooo.           ",
"          .oo+++++oo.           ",
"         ..o+++++++..           ",
"         .oo+..+++.o.           ",
"         .oo+..+++.o.           ",
"         .ooO++++++o.           ",
"         ..++++++++..           ",
"          .++++++++.            ",
"          .XXXXX+XX.            ",
"          .XXXXXXXX.            ",
"          .XXXXXXXX.            ",
"          .XX....XX.            ",
"          .X..  .X..            ",
"          ...   ...             ",
"                                ",
"                                ",
"                                ",
"                                ",
"                                ",
"                                "
};
