/* XPM */
static char *result[] = {
/* columns rows colors chars-per-pixel */
"32 24 6 1 ",
"  c #4F3E34",
". c #715739",
"X c #353540",
"o c #BFB8B4",
"O c #EDE4DA",
"+ c None",
/* pixels */
"++++++++++++++++++++++++++++++++",
"++++++++++++++++++++++++++++++++",
"++++++++++++++++++++++++++++++++",
"++++++++++++++++++++++++++++++++",
"++++++++++++++++++++++++++++++++",
"++++++++++++++++++++++++++++++++",
"++++++++++++++XXXX++++++++++++++",
"+++++++++++++XXOoXX+++++++++++++",
"+++++++++++++XOOooX+++++++++++++",
"+++++++++++++XOOooX+++++++++++++",
"+++++++++++++XOOooX+++++++++++++",
"+++++++++++++XOOooX+++++++++++++",
"+++++++++++++XOOooX+++++++++++++",
"+++++++++++++XOOooX+++++++++++++",
"+++++++++++++XOOooX+++++++++++++",
"+++++++++++++XOOooX+++++++++++++",
"+++++++++++++XOOooX+++++++++++++",
"+++++++++++++XOOooX+++++++++++++",
"++++++++++++XXOOooXX++++++++++++",
"++++++++++++X......X++++++++++++",
"++++++++++++XXX  XXX++++++++++++",
"++++++++++++++X. X++++++++++++++",
"++++++++++++++X. X++++++++++++++",
"++++++++++++++X. X++++++++++++++",
"++++++++++++++X. X++++++++++++++",
"++++++++++++++XXXX++++++++++++++",
"++++++++++++++++++++++++++++++++",
"++++++++++++++++++++++++++++++++",
"++++++++++++++++++++++++++++++++",
"++++++++++++++++++++++++++++++++",
"++++++++++++++++++++++++++++++++",
"++++++++++++++++++++++++++++++++"
};
