/* XPM */
static char *result[] = {
/* columns rows colors chars-per-pixel */
"31 31 6 1 ",
"  c #090300",
". c #3C2C2C",
"X c #6D5D5B",
"o c #B1A38E",
"O c #EBE0C3",
"+ c None",
/* pixels */
"+                             +",
" OO OOOOOOOO OOOOOO OOOOOOO OO ",
" oX OooooooX OooooX OoooooX Oo ",
" oX OooooooX OooooX OoooooX Oo ",
" XX XXXXXXXX XXXXXX XXXXXXX XX ",
"                               ",
" OOOO oooo OOOOOOOOO oooo OOOO ",
" OooX oXX. OoooooooX oXX. OooX ",
" OooX oXX. OoooooooX oXX. OooX ",
" XXXX .... XXXXXXXXX .... XXXX ",
"                               ",
" oo oooooooo oooooo ooooooo oo ",
" X. oXXXXXX. oXXXX. oXXXXX. oX ",
" X. oXXXXXX. oXXXX. oXXXXX. oX ",
" X. ........ oXXXX. ....... oX ",
"                               ",
" oo oooooooo oooooo ooooooo oo ",
" X. oXXXXXX. oXXXX. oXXXXX. oX ",
" X. oXXXXXX. oXXXX. oXXXXX. oX ",
" .. ........ ...... ....... .. ",
"                               ",
" OOOO oooo OOOOOOOOO oooo OOOO ",
" OooX oXX. OoooooooX oXX. OooX ",
" OooX oXX. OoooooooX oXX. OooX ",
" XXXX .... XXXXXXXXX .... XXXX ",
"                               ",
" OO OOOOOOO OOOOOO OOOOOOOO OO ",
" oX OoooooX OooooX OooooooX Oo ",
" oX OoooooX OooooX OooooooX Oo ",
" XX XXXXXXX XXXXXX XXXXXXXX XX ",
"+                             +"
};
